<svg t="1605772891528" class="icon" viewBox="0 0 1024 1024" version="1.1" xmlns="http://www.w3.org/2000/svg" p-id="2730" width="64" height="64"><path d="M56.186633 111.282261A111.304299 111.304299 0 0 1 167.713541 0.000223h679.04527a111.348821 111.348821 0 0 1 111.526908 111.282038V912.695478a111.304299 111.304299 0 0 1-111.526908 111.282039H167.713541a111.304299 111.304299 0 0 1-111.526908-111.259778V111.282261zM129.335819 139.842944v744.336372a66.626754 66.626754 0 0 0 66.738057 66.693537h622.324599a66.849362 66.849362 0 0 0 66.738058-66.693537V139.842944a66.626754 66.626754 0 0 0-66.738058-66.693536H196.073876A66.849362 66.849362 0 0 0 129.335819 139.842944z" p-id="2731"></path><path d="M122.969213 155.826242h784.472702v48.751283H122.991473zM122.969213 823.652038h784.472702v48.751284H122.991473zM641.491422 318.063389l-123.325164 164.196102-123.280642-164.196102a23.618772 23.618772 0 0 0-33.190942-4.65252 23.641033 23.641033 0 0 0-4.674781 33.190942l131.539422 175.126185h-88.909875c-13.133907 0-23.707816 10.573908-23.707816 23.707816s10.573908 23.707816 23.707816 23.707815h94.831263v47.415632h-94.831263c-13.133907 0-23.707816 10.573908-23.707816 23.707816s10.573908 23.707816 23.707816 23.707815h94.831263v71.123448h0.089044c0 0.178087-0.089043 0.422956-0.089044 0.601043 0 13.133907 10.573908 23.707816 23.707816 23.707816s23.707816-10.596169 23.707816-23.707816c0-0.178087-0.089043-0.422956-0.089044-0.601043h0.089044v-71.123448h94.831263c13.133907 0 23.730077-10.573908 23.730077-23.707815s-10.573908-23.707816-23.707816-23.707816h-94.853524v-47.415632h94.831263c13.133907 0 23.730077-10.573908 23.730077-23.707815s-10.573908-23.707816-23.707816-23.707816H547.839984l131.606204-175.126185a23.730077 23.730077 0 1 0-37.954766-28.538422z" p-id="2732"></path></svg>