<svg t="1605771975366" class="icon" viewBox="0 0 1024 1024" version="1.1" xmlns="http://www.w3.org/2000/svg" p-id="1846" width="64" height="64"><path d="M624.981872 527.657805c-145.525485 0-263.828903-118.303418-263.828902-263.828902S479.456388 0 624.981872 0s263.828903 118.303418 263.828903 263.828903-118.508095 263.828903-263.828903 263.828902z m0-466.459324c-111.753748 0-202.630422 90.876674-202.630421 202.630422s90.876674 202.630422 202.630421 202.630421 202.630422-90.876674 202.630422-202.630421-91.081351-202.630422-202.630422-202.630422z" p-id="1847"></path><path d="M214.194745 944.585249c-16.988207 0-30.496902-13.713372-30.496902-30.496902 0-243.361183 197.922846-441.28403 441.284029-441.28403 16.988207 0 30.496902 13.713372 30.496902 30.496902 0 16.988207-13.713372 30.496902-30.496902 30.496902-209.589446 0-380.085549 170.496102-380.085548 380.085549-0.204677 16.988207-13.713372 30.701579-30.701579 30.701579zM327.58591 483.447531c-4.298221 0-8.801119-1.023386-12.894663-2.86548-87.601839-40.935439-141.431941-133.244853-134.063562-229.647812 6.344993-82.075555 56.286228-155.554667 130.379372-191.78253 15.146112-7.368379 33.56706-1.228063 40.935439 14.122726 7.368379 15.146112 1.228063 33.56706-14.122726 40.935439-54.648811 26.812712-91.490706 81.052169-96.198281 141.636618-5.526284 71.227663 34.181091 139.180492 98.859084 169.472716 15.35079 7.163702 21.90046 25.379972 14.736758 40.730762-5.11693 10.847891-16.169498 17.397561-27.631421 17.397561z" p-id="1848"></path><path d="M34.078814 832.012792c-16.988207 0-30.496902-13.713372-30.496902-30.496902 0-186.256246 132.630822-346.518489 315.202879-381.108934 16.578853-3.274835 32.543674 7.777733 35.818508 24.356586 3.070158 16.578853-7.777733 32.543674-24.356586 35.818509-153.91725 29.064162-265.46632 164.151109-265.46632 320.933839 0 16.78353-13.713372 30.496902-30.701579 30.496902zM760.887529 1024c-11.052568 0-21.286428-4.298221-26.608035-13.918049L546.590507 678.095543h-22.923846c-16.988207 0-30.496902-12.689986-30.496901-29.678193s13.713372-29.678193 30.496901-29.678193h40.730762c11.052568 0 21.286428 5.11693 26.608035 14.736757l169.472717 301.080152 167.221267-300.875474c5.321607-9.619828 15.555467-15.146112 26.812712-15.146113H992.786789c16.988207 0 30.496902 12.689986 30.496902 29.678193s-13.713372 29.678193-30.496902 29.678193h-20.263042L787.495564 1009.672596c-5.321607 10.029182-15.555467 14.327404-26.608035 14.327404z" p-id="1849"></path></svg>