<svg t="1605772519315" class="icon" viewBox="0 0 1024 1024" version="1.1" xmlns="http://www.w3.org/2000/svg" p-id="7328" width="64" height="64"><path d="M967.68 256c-20.48 0-35.84 15.36-35.84 35.84v537.6h-327.68c-35.84 0-66.56 15.36-92.16 40.96-25.6-25.6-56.32-40.96-92.16-40.96H92.16V286.72c0-15.36-15.36-30.72-35.84-30.72-15.36 0-30.72 15.36-30.72 30.72v547.84c0 30.72 25.6 56.32 56.32 56.32h337.92c25.6 0 46.08 15.36 51.2 35.84 5.12 10.24 15.36 20.48 30.72 20.48h15.36c15.36 0 25.6-10.24 30.72-20.48 10.24-20.48 30.72-35.84 51.2-35.84h337.92c30.72 0 56.32-25.6 56.32-56.32V286.72c5.12-15.36-10.24-30.72-25.6-30.72z" p-id="7329"></path><path d="M834.56 419.84c20.48 0 35.84-15.36 35.84-35.84V117.76c0-25.6-20.48-46.08-46.08-46.08h-220.16c-35.84 0-66.56 15.36-92.16 35.84-25.6-25.6-56.32-35.84-92.16-35.84H199.68c-25.6 0-46.08 20.48-46.08 46.08V716.8c0 10.24 10.24 20.48 20.48 20.48h245.76c25.6 0 46.08 15.36 56.32 35.84 0 0 5.12 25.6 35.84 25.6s35.84-25.6 35.84-25.6c5.12-20.48 30.72-35.84 56.32-35.84h245.76c10.24 0 20.48-10.24 20.48-20.48v-194.56c0-20.48-15.36-30.72-35.84-30.72-20.48 0-35.84 15.36-35.84 30.72v122.88c0 10.24-10.24 20.48-20.48 20.48h-179.2c-20.48 0-40.96 5.12-56.32 10.24V189.44c0-25.6 25.6-46.08 56.32-46.08h199.68v245.76c5.12 15.36 20.48 30.72 35.84 30.72z m-414.72 250.88H245.76c-10.24 0-20.48-10.24-20.48-20.48v-512h199.68c30.72 0 56.32 20.48 56.32 46.08v491.52c-20.48-5.12-40.96-5.12-61.44-5.12z" p-id="7330"></path></svg>