<svg t="1604489905274" class="icon" viewBox="0 0 1024 1024" version="1.1" xmlns="http://www.w3.org/2000/svg" p-id="3849" width="64" height="64"><path d="M959.9 447.2c-0.3-9.8-4.2-19.5-11.7-26.9L816 302.7V104c0-22.1-17.9-40-40-40H248c-22.1 0-40 17.9-40 40v199.2l-132.2 117c-6.5 6.5-10.2 14.6-11.4 23-0.3 1.9-0.4 3.8-0.4 5.8v471c0 22.1 17.9 40 40 40h816c22.1 0 40-17.9 40-40V449c0-0.6 0-1.2-0.1-1.8zM381.2 733.5L112 900.6V507.2l269.2 226.3z m38.6 32.5l63.9 53.7c7.8 7.8 18 11.7 28.3 11.7s20.5-3.9 28.3-11.7l64.1-53.9 234 146.2H184.7l235.1-146zM643 733.4l269-226.2v394.1L643 733.4z m264.3-284.7L816 525.4V364.8l91.3 83.9zM768 112v453.7l-256 215-256-215V112h512zM208 365.5v159.9l-91.3-76.7 91.3-83.2z" p-id="3850"></path><path d="M384 320h256c13.3 0 24-10.7 24-24s-10.7-24-24-24H384c-13.3 0-24 10.7-24 24s10.7 24 24 24zM580 432H444c-13.3 0-24 10.7-24 24s10.7 24 24 24h136c13.3 0 24-10.7 24-24s-10.7-24-24-24z" p-id="3851"></path></svg>