<svg t="1605772442676" class="icon" viewBox="0 0 1097 1024" version="1.1" xmlns="http://www.w3.org/2000/svg" p-id="6487" width="64" height="64"><path d="M73.142857 261.193143v627.053714c0 11.483429 9.362286 20.845714 21.138286 20.845714h856.356571a20.845714 20.845714 0 0 0 21.138286-20.845714V282.038857a20.918857 20.918857 0 0 0-21.138286-20.845714H73.142857z m-62.683428-62.683429h940.178285c46.299429 0 83.821714 37.302857 83.821715 83.529143v606.208c0 46.08-37.302857 83.529143-83.821715 83.529143H94.354286c-46.299429 0-83.821714-37.302857-83.821715-83.529143v-689.737143z" p-id="6488"></path><path d="M898.633143 659.017143v166.546286a10.459429 10.459429 0 0 1-10.386286 10.386285h-105.398857a10.459429 10.459429 0 0 0 0 20.845715h105.325714a31.378286 31.378286 0 0 0 31.305143-31.232V659.017143a10.459429 10.459429 0 1 0-20.845714 0zM422.912 198.509714l-101.376-84.845714a7.314286 7.314286 0 0 1 1.170286 1.243429c0.658286 0.146286 1.097143 0 2.048 0H94.208A21.065143 21.065143 0 0 0 73.142857 136.045714v62.464h349.769143zM10.386286 136.045714c0-46.299429 37.522286-83.821714 83.821714-83.821714H324.754286c11.556571 0 28.16 6.070857 36.937143 13.385143L531.529143 207.725714c35.401143 29.622857 26.550857 53.540571-19.456 53.540572H10.459429V136.045714zM10.459429 470.235429h1024V407.405714h-1024z" p-id="6489"></path></svg>