<svg t="1605772645686" class="icon" viewBox="0 0 1135 1024" version="1.1" xmlns="http://www.w3.org/2000/svg" p-id="8789" width="64" height="64"><path d="M865.613 265.243h-11.7A293.51 293.51 0 0 0 572.596 0a284.757 284.757 0 0 0-263.457 193.261h-5.046C136.372 193.261 0.447 341.021 0.447 523.7a339.369 339.369 0 0 0 127.129 269.04l36.973-116.502a230.726 230.726 0 0 1-56.8-151.555 206.3 206.3 0 0 1 194.736-215.99h6.072A108.821 108.821 0 0 0 409.52 236.71a176.874 176.874 0 0 1 162.316-121.235 184.152 184.152 0 0 1 174.15 166.737 109.893 109.893 0 0 0 107.169 98.506h11.699a172.05 172.05 0 0 1 162.316 180 187.992 187.992 0 0 1-54.12 133.559v135.48a295.161 295.161 0 0 0 162.316-269.04 281.944 281.944 0 0 0-269.574-295.563z" p-id="8790"></path><path d="M203.532 1024h-77.653l137.355-378.887h96.63L493.425 1024h-82.43l-28.4-79.573H233.047L203.666 1024z m49.119-142.892h108.955l-51.173-162.004h-1.876zM611.667 1024h-79.439V645.113H648.73q153.475-1.43 153.475 116.502c-2.858 73.901-46.395 112.706-131.684 116.501h-59.658V1024z m0-315.434v107.169c3.796 0 12.325 0.938 24.65 1.875 54.923 5.671 81.448-13.396 79.572-54.924 0-36.928-26.524-54.924-79.573-53.048a222.152 222.152 0 0 1-24.515-1.072z m320.168-63.453V1024h-82.431V645.113z" p-id="8791"></path></svg>