<svg t="1605772978619" class="icon" viewBox="0 0 1024 1024" version="1.1" xmlns="http://www.w3.org/2000/svg" p-id="2759" width="64" height="64"><path d="M955.183932 369.935424 547.298859 920.557046c-7.507282 11.650341-20.412725 18.681478-34.274999 18.681478-13.86125 0-26.767717-7.031137-34.276022-18.681478L70.862764 369.935424c-8.006676-12.407588-8.672875-28.160363-1.762205-41.205471l220.911184-224.327138c7.070312-13.343913 20.941796-21.687952 36.038228-21.687952l368.888346 0c14.836501 0 28.519689 8.065699 35.690289 21.050432l225.96857 224.327138C963.866017 341.237825 963.329783 357.329315 955.183932 369.935424zM511.250397 828.707129l155.725955-460.484719L357.746132 368.222409 511.250397 828.707129zM473.987222 845.754387 314.797234 368.222409 120.245452 368.222409 473.987222 845.754387zM326.04997 123.501802 125.225064 327.436494l194.312319 0 152.956775-203.933669L326.04997 123.502825zM370.015052 327.436494l291.42294 0L514.696011 134.515646 370.015052 327.436494zM694.938316 123.501802 557.317437 123.501802l154.908299 203.65533-0.278351 0.278339 188.4076 0L694.938316 123.501802zM710.313099 368.222409l-164.189044 485.538325 359.6864-485.538325L710.313099 368.222409z" p-id="2760"></path></svg>