<svg t="1605860559379" class="icon" viewBox="0 0 1024 1024" version="1.1" xmlns="http://www.w3.org/2000/svg" p-id="2592" width="64" height="64"><path d="M436.224 0L844.8 206.848v205.312A25.6 25.6 0 1 1 793.6 409.6l0.2048 2.56H793.6V238.7456L438.528 51.2 76.8 238.7456V972.8h256a25.6 25.6 0 1 1 0 51.2H25.6V206.848L436.224 0z m331.776 921.6a25.6 25.6 0 1 1 0 51.2h-153.6a25.6 25.6 0 1 1 0-51.2h153.6z m153.6-153.6a25.6 25.6 0 1 1 0 51.2h-307.2a25.6 25.6 0 1 1 0-51.2h307.2z m0-153.6a25.6 25.6 0 1 1 0 51.2h-307.2a25.6 25.6 0 1 1 0-51.2h307.2z" p-id="2593"></path></svg>