<svg t="1605772316437" class="icon" viewBox="0 0 1088 1024" version="1.1" xmlns="http://www.w3.org/2000/svg" p-id="4839" width="64" height="64"><path d="M539.52 595.712c-28.928 0-57.792-5.952-80.64-17.792L48.32 364.8C17.92 348.992 0.64 323.968 0.768 296.128c0.256-28.16 18.24-53.12 49.408-68.8L469.376 17.28c46.08-23.04 114.752-22.784 160 0.64l410.56 213.12c30.4 15.872 47.744 40.896 47.552 68.736-0.192 28.032-18.24 53.12-49.408 68.736L618.88 578.624c-22.72 11.392-51.072 17.088-79.36 17.088zM106.88 296.64l393.984 204.608c19.584 10.112 57.088 10.176 77.184 0.064l403.392-202.112-394.048-204.544c-19.52-10.176-57.024-10.24-77.184-0.128L106.88 296.64zM166.784 555.008l398.208 208.384c26.56 13.952 32.768 33.856 18.432 59.776-14.336 25.92-34.752 31.936-61.44 17.92L123.904 632.832c-26.624-13.952-32.768-33.92-18.496-59.776 14.336-25.92 34.816-31.936 61.44-17.984z" p-id="4840"></path><path d="M962.432 632.768l-398.208 208.448c-26.624 13.888-47.04 7.936-61.376-17.984-14.336-25.92-8.128-45.888 18.496-59.776l398.144-208.448c26.624-13.888 47.104-7.936 61.44 17.984 14.272 25.92 8.128 45.888-18.496 59.776zM166.016 730.368l398.208 208.384c26.624 13.952 32.768 33.92 18.432 59.776-14.272 25.92-34.752 31.936-61.376 17.984l-398.208-208.384c-26.624-13.952-32.768-33.92-18.432-59.776 14.272-25.92 34.752-31.936 61.44-17.984z" p-id="4841"></path><path d="M962.56 808.128l-398.208 208.448c-26.624 13.888-47.104 7.936-61.44-17.984-14.272-25.92-8.128-45.888 18.496-59.776l398.208-208.448c26.624-13.888 47.104-7.936 61.44 17.984 14.272 25.92 8.128 45.888-18.56 59.776z" p-id="4842"></path></svg>