<svg t="1605771829218" class="icon" viewBox="0 0 1024 1024" version="1.1" xmlns="http://www.w3.org/2000/svg" p-id="3550" width="64" height="64"><path d="M939.154286 945.737143a15.36 15.36 0 0 1-9.508572 0l-292.571428-247.954286a146.285714 146.285714 0 0 1-150.674286-21.942857A146.285714 146.285714 0 0 1 442.514286 512a12.434286 12.434286 0 0 1 10.24-8.777143 13.165714 13.165714 0 0 1 12.434285 0l46.811429 43.885714 43.154286-7.314285v-43.885715L512 456.411429a15.36 15.36 0 0 1-5.12-13.165715 13.897143 13.897143 0 0 1 5.12-10.971428 140.434286 140.434286 0 0 1 155.794286 19.017143 146.285714 146.285714 0 0 1 46.08 146.285714l292.571428 247.954286a12.434286 12.434286 0 0 1 5.12 10.24 13.165714 13.165714 0 0 1 0 10.24l-62.171428 73.142857a15.36 15.36 0 0 1-10.24 6.582857zM637.074286 661.942857a13.165714 13.165714 0 0 1 8.777143 0l292.571428 245.028572 43.154286-51.931429-292.571429-245.028571a15.36 15.36 0 0 1-5.12-16.091429 114.834286 114.834286 0 0 0-34.377143-124.342857 111.908571 111.908571 0 0 0-102.4-23.405714l32.182858 27.794285a17.554286 17.554286 0 0 1 5.851428 15.36v62.902857a13.897143 13.897143 0 0 1-11.702857 13.897143L512 577.097143a13.165714 13.165714 0 0 1-11.702857 0l-35.108572-29.988572a113.371429 113.371429 0 0 0 38.765715 105.325715 110.445714 110.445714 0 0 0 126.537143 13.897143z" p-id="3551"></path><path d="M770.925714 868.937143l-52.662857 37.302857a59.245714 59.245714 0 0 1-83.382857-12.434286l-18.285714-24.868571h-13.165715a371.565714 371.565714 0 0 1-207.725714 0h-13.165714l-16.822857 24.868571a58.514286 58.514286 0 0 1-82.651429 12.434286l-130.194286-92.16a59.245714 59.245714 0 0 1-14.628571-80.457143l32.182857-43.154286-5.12-10.971428a352.548571 352.548571 0 0 1-32.914286-138.24v-13.897143L87.771429 512a58.514286 58.514286 0 0 1-38.765715-73.142857l49.005715-146.285714a55.588571 55.588571 0 0 1 29.257142-33.645715 57.782857 57.782857 0 0 1 45.348572 0l59.977143 19.017143 8.777143-8.045714a365.714286 365.714286 0 0 1 107.52-73.142857l11.702857-5.12V146.285714a59.245714 59.245714 0 0 1 59.977143-58.514285h159.451428a58.514286 58.514286 0 0 1 59.245714 58.514285v38.034286l11.702858 5.12a378.148571 378.148571 0 0 1 101.668571 67.291429l8.045714 8.045714 43.885715-13.897143a60.708571 60.708571 0 0 1 45.348571 0A62.902857 62.902857 0 0 1 877.714286 292.571429l51.2 146.285714a59.245714 59.245714 0 0 1-37.302857 73.142857l-21.942858 7.314286v13.897143a343.771429 343.771429 0 0 1-25.6 117.76l32.182858 29.988571a400.091429 400.091429 0 0 0 32.914285-133.12 98.011429 98.011429 0 0 0 59.245715-122.148571l-49.005715-146.285715a98.742857 98.742857 0 0 0-125.074285-62.902857l-23.405715 2.925714a410.331429 410.331429 0 0 0-92.16-58.514285V146.285714A98.011429 98.011429 0 0 0 580.022857 49.737143H421.302857A98.742857 98.742857 0 0 0 321.828571 146.285714v12.434286a390.582857 390.582857 0 0 0-98.742857 66.56l-37.302857-11.702857a98.742857 98.742857 0 0 0-125.074286 64.365714l-49.005714 146.285714A97.28 97.28 0 0 0 73.142857 550.034286l18.285714 5.851428a401.554286 401.554286 0 0 0 32.182858 128l-18.285715 24.137143a97.28 97.28 0 0 0 19.748572 135.314286l128.731428 92.16a100.205714 100.205714 0 0 0 138.24-21.942857 413.257143 413.257143 0 0 0 202.605715 0 100.937143 100.937143 0 0 0 138.971428 21.942857l59.245714-43.154286z" p-id="3552"></path><path d="M381.074286 613.668571A162.377143 162.377143 0 0 1 343.771429 512 166.034286 166.034286 0 0 1 512 343.04a168.96 168.96 0 0 1 68.754286 15.36l25.6-33.645714A194.56 194.56 0 0 0 512 300.617143a209.188571 209.188571 0 0 0-157.988571 347.428571z" p-id="3553"></path></svg>