<svg t="1605769955149" class="icon" viewBox="0 0 1024 1024" version="1.1" xmlns="http://www.w3.org/2000/svg" p-id="2958" width="64" height="64"><path d="M139.636364 257.675636V342.574545a51.665455 51.665455 0 0 1-7.586909-76.613818L139.636364 257.675636z m744.727272 11.962182l-1.861818-2.466909c16.011636 18.850909 16.197818 45.754182 1.861818 64.698182V269.637818zM710.609455 93.090909c15.173818 0 29.556364 6.656 39.377454 18.199273L853.224727 232.727273h-67.165091l-75.077818-88.250182-0.372363-0.186182H312.785455L231.842909 232.727273H162.443636l112.453819-122.833455c9.774545-10.705455 23.645091-16.802909 38.167272-16.802909h397.498182z" p-id="2959"></path><path d="M817.338182 222.626909H196.654545c-42.728727 0-77.312 34.629818-77.312 77.312v517.213091a129.024 129.024 0 0 0 129.024 129.024h517.166546a129.024 129.024 0 0 0 129.024-129.024V299.938909c0-42.682182-34.629818-77.265455-77.265455-77.265454z m-620.637091 51.2h620.590545c14.429091 0 26.112 11.729455 26.112 26.112v517.213091c0 42.961455-34.816 77.824-77.824 77.824H248.413091a77.824 77.824 0 0 1-77.824-77.824V299.938909c0-14.429091 11.636364-26.065455 26.065454-26.065454z" p-id="2960"></path><path d="M552.96 488.541091a129.024 129.024 0 0 1 7.819636 257.861818l-7.866181 0.232727H397.777455a25.6 25.6 0 0 1-4.142546-50.874181l4.189091-0.325819h155.089455a77.824 77.824 0 0 0 6.74909-155.415272l-6.74909-0.279273H397.777455a25.6 25.6 0 0 1-4.142546-50.874182l4.189091-0.325818h155.089455z" p-id="2961"></path><path d="M319.763515 514.115598m18.29941-18.29941l-0.032913 0.032913q18.299409-18.299409 36.598819 0l73.098899 73.098899q18.299409 18.299409 0 36.598819l0.032912-0.032913q-18.299409 18.299409-36.598818 0l-73.098899-73.098899q-18.299409-18.299409 0-36.598819Z" p-id="2962"></path><path d="M319.763515 514.115598m18.101934-18.101934l73.49385-73.49385q18.101934-18.101934 36.203868 0l0 0q18.101934 18.101934 0 36.203867l-73.493851 73.49385q-18.101934 18.101934-36.203867 0l0 0q-18.101934-18.101934 0-36.203867Z" p-id="2963"></path></svg>