<svg t="1605770240642" class="icon" viewBox="0 0 1024 1024" version="1.1" xmlns="http://www.w3.org/2000/svg" p-id="4740" width="64" height="64"><path d="M368.486 856.99c-1.433 42.61-33.525 74.696-76.134 76.13-42.588 1.434-74.772-35.681-76.134-76.13-1.434-42.587 35.68-74.772 76.134-76.134 42.593-1.438 74.772 35.682 76.134 76.135 1.111 32.926 52.311 33.034 51.2 0-2.39-71-56.335-124.944-127.334-127.335-70.958-2.39-125.061 59.935-127.334 127.335-2.391 70.953 59.934 125.06 127.334 127.329 70.953 2.391 125.061-59.93 127.334-127.33 1.111-33.034-50.089-32.926-51.2 0z m415.427 0c-1.434 42.61-33.526 74.696-76.134 76.13-42.589 1.434-74.768-35.686-76.13-76.13-1.433-42.587 35.682-74.772 76.13-76.134 42.598-1.438 74.772 35.682 76.134 76.135 1.111 32.926 52.316 33.034 51.2 0-2.391-71-56.335-124.944-127.334-127.335-70.953-2.39-125.062 59.94-127.33 127.335-2.39 70.948 59.935 125.06 127.33 127.329 70.953 2.391 125.066-59.93 127.334-127.33 1.116-33.034-50.089-32.926-51.2 0z" p-id="4741"></path><path d="M725.765 297.636c83.702 72.75 167.399 145.5 251.105 218.245l-7.5-18.1v315.761c0 15.243-10.84 15.314-23.281 15.314H809.533c-33.013 0-33.013 51.2 0 51.2h90c30.034 0 69.673 6.41 95.606-11.924 25.81-18.243 25.43-46.418 25.43-74.235V498.744c0-18.186-19.937-29.87-32.153-40.494L906.67 387.2 761.964 261.427c-24.792-21.545-61.164 14.515-36.199 36.209z" p-id="4742"></path><path d="M190.618 828.861H97.249c-17.52 0-26.434-1.884-26.434-20.06V159.754c0-14.233 15.81-11.53 25.308-11.53h611.41c15.954 0 10.736 28.518 10.736 38.124v93.189c0 33.019 51.2 33.019 51.2 0v-80.523c0-41.743 0.359-96.455-54.993-101.417-38.252-3.425-77.804-0.578-116.158-0.578H140.483c-50.304 0-114.678-7.603-120.863 61.44-3.2 35.697 0 73.154 0 108.953v529.68c0 10.895-1.424 24.15 1.495 34.78 11.55 42.086 46.628 48.19 84.034 48.19h85.479c33.008 0 33.008-51.2-0.01-51.2z m412.953 0H427.494c-33.018 0-33.018 51.2 0 51.2h176.077c33.014 0 33.014-51.2 0-51.2z m114.693-374.748v94.172c0 13.947 11.643 25.595 25.6 25.595H883.2c33.014 0 33.014-51.19 0-51.19H743.864c8.535 8.536 17.065 17.07 25.6 25.595v-94.172c0-33.019-51.2-33.019-51.2 0z" p-id="4743"></path></svg>